<mxfile host="drawio-plugin" modified="2023-10-31T23:16:52.404Z" agent="5.0 (Macintosh; Intel Mac OS X 10_15_7) AppleWebKit/537.36 (KHTML, like Gecko) Chrome/104.0.5112.102 Safari/537.36" etag="igRd2UfeNCee4YiSzTzX" version="20.5.3" type="embed"><diagram name="Page-1" id="tJjJKwHTvZZy1w9gYdb_"><mxGraphModel dx="1120" dy="904" grid="1" gridSize="10" guides="1" tooltips="1" connect="1" arrows="1" fold="1" page="1" pageScale="1" pageWidth="827" pageHeight="1169" math="0" shadow="0"><root><mxCell id="0"/><mxCell id="1" parent="0"/><mxCell id="Bfohfms9kU7T_XcgMXBh-36" style="edgeStyle=orthogonalEdgeStyle;rounded=0;orthogonalLoop=1;jettySize=auto;html=1;entryX=0.5;entryY=0;entryDx=0;entryDy=0;endArrow=classic;endFill=1;" parent="1" source="Bfohfms9kU7T_XcgMXBh-3" target="Bfohfms9kU7T_XcgMXBh-5" edge="1"><mxGeometry relative="1" as="geometry"/></mxCell><mxCell id="Bfohfms9kU7T_XcgMXBh-3" value="MYSQL" style="shape=datastore;whiteSpace=wrap;html=1;" parent="1" vertex="1"><mxGeometry x="540" y="10" width="130" height="140" as="geometry"/></mxCell><mxCell id="Bfohfms9kU7T_XcgMXBh-25" style="edgeStyle=orthogonalEdgeStyle;rounded=0;orthogonalLoop=1;jettySize=auto;html=1;entryX=0.5;entryY=0;entryDx=0;entryDy=0;" parent="1" source="Bfohfms9kU7T_XcgMXBh-5" target="Bfohfms9kU7T_XcgMXBh-11" edge="1"><mxGeometry relative="1" as="geometry"/></mxCell><mxCell id="Bfohfms9kU7T_XcgMXBh-26" style="edgeStyle=orthogonalEdgeStyle;rounded=0;orthogonalLoop=1;jettySize=auto;html=1;entryX=0.5;entryY=0;entryDx=0;entryDy=0;strokeColor=default;" parent="1" source="Bfohfms9kU7T_XcgMXBh-5" target="Bfohfms9kU7T_XcgMXBh-16" edge="1"><mxGeometry relative="1" as="geometry"/></mxCell><mxCell id="Bfohfms9kU7T_XcgMXBh-38" style="edgeStyle=orthogonalEdgeStyle;rounded=0;orthogonalLoop=1;jettySize=auto;html=1;entryX=0.5;entryY=1;entryDx=0;entryDy=0;" parent="1" source="Bfohfms9kU7T_XcgMXBh-5" target="Bfohfms9kU7T_XcgMXBh-3" edge="1"><mxGeometry relative="1" as="geometry"/></mxCell><mxCell id="Bfohfms9kU7T_XcgMXBh-5" value="DBConnector" style="rounded=0;whiteSpace=wrap;html=1;" parent="1" vertex="1"><mxGeometry x="475" y="180" width="260" height="60" as="geometry"/></mxCell><mxCell id="Bfohfms9kU7T_XcgMXBh-42" style="edgeStyle=orthogonalEdgeStyle;rounded=0;orthogonalLoop=1;jettySize=auto;html=1;entryX=0.5;entryY=1;entryDx=0;entryDy=0;" parent="1" source="Bfohfms9kU7T_XcgMXBh-11" target="Bfohfms9kU7T_XcgMXBh-5" edge="1"><mxGeometry relative="1" as="geometry"/></mxCell><mxCell id="Bfohfms9kU7T_XcgMXBh-50" style="edgeStyle=orthogonalEdgeStyle;rounded=0;orthogonalLoop=1;jettySize=auto;html=1;entryX=0.5;entryY=0;entryDx=0;entryDy=0;" parent="1" source="Bfohfms9kU7T_XcgMXBh-11" target="Bfohfms9kU7T_XcgMXBh-48" edge="1"><mxGeometry relative="1" as="geometry"/></mxCell><mxCell id="Bfohfms9kU7T_XcgMXBh-11" value="Instrument Service" style="whiteSpace=wrap;html=1;aspect=fixed;" parent="1" vertex="1"><mxGeometry x="507" y="430" width="80" height="80" as="geometry"/></mxCell><mxCell id="Bfohfms9kU7T_XcgMXBh-51" style="edgeStyle=orthogonalEdgeStyle;rounded=0;orthogonalLoop=1;jettySize=auto;html=1;entryX=0.5;entryY=0;entryDx=0;entryDy=0;" parent="1" source="Bfohfms9kU7T_XcgMXBh-16" target="Bfohfms9kU7T_XcgMXBh-48" edge="1"><mxGeometry relative="1" as="geometry"/></mxCell><mxCell id="Bfohfms9kU7T_XcgMXBh-16" value="Portfolio Service" style="whiteSpace=wrap;html=1;aspect=fixed;" parent="1" vertex="1"><mxGeometry x="623" y="430" width="80" height="80" as="geometry"/></mxCell><mxCell id="Bfohfms9kU7T_XcgMXBh-30" value="YAHOO" style="shape=datastore;whiteSpace=wrap;html=1;" parent="1" vertex="1"><mxGeometry x="20" y="10" width="130" height="140" as="geometry"/></mxCell><mxCell id="Bfohfms9kU7T_XcgMXBh-39" style="edgeStyle=orthogonalEdgeStyle;rounded=0;orthogonalLoop=1;jettySize=auto;html=1;exitX=0.5;exitY=0;exitDx=0;exitDy=0;entryX=0.5;entryY=1;entryDx=0;entryDy=0;" parent="1" source="Bfohfms9kU7T_XcgMXBh-31" target="2" edge="1"><mxGeometry relative="1" as="geometry"/></mxCell><mxCell id="Bfohfms9kU7T_XcgMXBh-41" style="edgeStyle=orthogonalEdgeStyle;rounded=0;orthogonalLoop=1;jettySize=auto;html=1;entryX=0.5;entryY=0;entryDx=0;entryDy=0;" parent="1" source="Bfohfms9kU7T_XcgMXBh-31" target="Bfohfms9kU7T_XcgMXBh-37" edge="1"><mxGeometry relative="1" as="geometry"/></mxCell><mxCell id="Bfohfms9kU7T_XcgMXBh-31" value="YahooAPIClient" style="rounded=0;whiteSpace=wrap;html=1;" parent="1" vertex="1"><mxGeometry x="35" y="220" width="260" height="60" as="geometry"/></mxCell><mxCell id="Bfohfms9kU7T_XcgMXBh-46" style="edgeStyle=orthogonalEdgeStyle;rounded=0;orthogonalLoop=1;jettySize=auto;html=1;entryX=0;entryY=0.5;entryDx=0;entryDy=0;" parent="1" source="Bfohfms9kU7T_XcgMXBh-32" target="Bfohfms9kU7T_XcgMXBh-5" edge="1"><mxGeometry relative="1" as="geometry"/></mxCell><mxCell id="Bfohfms9kU7T_XcgMXBh-49" style="edgeStyle=orthogonalEdgeStyle;rounded=0;orthogonalLoop=1;jettySize=auto;html=1;" parent="1" source="Bfohfms9kU7T_XcgMXBh-32" target="Bfohfms9kU7T_XcgMXBh-48" edge="1"><mxGeometry relative="1" as="geometry"/></mxCell><mxCell id="Bfohfms9kU7T_XcgMXBh-32" value="Pricing Service" style="whiteSpace=wrap;html=1;aspect=fixed;" parent="1" vertex="1"><mxGeometry x="125" y="500" width="80" height="80" as="geometry"/></mxCell><mxCell id="Bfohfms9kU7T_XcgMXBh-40" style="edgeStyle=orthogonalEdgeStyle;rounded=0;orthogonalLoop=1;jettySize=auto;html=1;exitX=0.5;exitY=0;exitDx=0;exitDy=0;" parent="1" source="Bfohfms9kU7T_XcgMXBh-37" target="Bfohfms9kU7T_XcgMXBh-31" edge="1"><mxGeometry relative="1" as="geometry"/></mxCell><mxCell id="Bfohfms9kU7T_XcgMXBh-45" style="edgeStyle=orthogonalEdgeStyle;rounded=0;orthogonalLoop=1;jettySize=auto;html=1;" parent="1" source="Bfohfms9kU7T_XcgMXBh-37" target="Bfohfms9kU7T_XcgMXBh-32" edge="1"><mxGeometry relative="1" as="geometry"/></mxCell><mxCell id="Bfohfms9kU7T_XcgMXBh-37" value="Market Data Service" style="whiteSpace=wrap;html=1;aspect=fixed;" parent="1" vertex="1"><mxGeometry x="125" y="350" width="80" height="80" as="geometry"/></mxCell><mxCell id="Bfohfms9kU7T_XcgMXBh-48" value="Interface Layer" style="rounded=0;whiteSpace=wrap;html=1;" parent="1" vertex="1"><mxGeometry x="101" y="690" width="625" height="170" as="geometry"/></mxCell><mxCell id="2" value="Yahoo Rest API" style="whiteSpace=wrap;html=1;aspect=fixed;" vertex="1" parent="1"><mxGeometry x="101" y="120" width="80" height="80" as="geometry"/></mxCell></root></mxGraphModel></diagram></mxfile>